<?xml version="1.0" encoding="UTF-8" standalone="no"?>
<!-- Created with Inkscape (http://www.inkscape.org/) -->

<svg
   width="99.97435mm"
   height="20.469742mm"
   viewBox="0 0 99.974347 20.469742"
   version="1.1"
   id="svg1"
   xml:space="preserve"
   xmlns="http://www.w3.org/2000/svg"
   xmlns:svg="http://www.w3.org/2000/svg"><defs
     id="defs1" /><g
     id="layer1"
     transform="translate(-62.48338,-105.23304)"><g
       id="g4"
       transform="matrix(0.26458333,0,0,0.26458333,58.219965,107.00643)">
	
	
	
	
	<g
   id="g1"
   transform="translate(13,-3)"><path
     class="st0"
     d="M 43.801559,7.2133831"
     id="path1"
     style="stroke-width:0.177798" /><path
     class="st1"
     d="M 4.5630855,73.663363 C 9.033633,69.760753 32.360776,47.539898 20.830175,9.4064632 l 23.160166,0.1726931 -2.944469,6.3192877 -12.803151,-0.09547 -0.0033,0.437303 C 33.275299,43.55611 20.14297,64.340559 4.5630855,73.663363 Z"
     id="path2"
     style="stroke-width:0.177798" /><path
     class="st1"
     d="M 9.4447007,15.12742 16.582437,14.947911 C 22.762752,34.483369 18.178281,55.873671 4.8450544,68.163517 13.479444,53.007816 18.435902,34.334307 9.4447007,15.12742 Z"
     id="path3"
     style="stroke-width:0.184796" /><path
     class="st1"
     d="m 3.1136943,27.764466 4.8116119,-0.01965 C 14.52502,38.168266 11.02723,53.602467 4.5107427,62.385668 8.2494124,52.511246 10.195166,37.386988 3.1136943,27.764466 Z"
     id="path4"
     style="stroke-width:0.172964" /><polygon
     class="st2"
     points="112.2,312.3 379.8,147.3 270.6,126.5 246.5,0 "
     id="polygon4"
     transform="matrix(0.23224703,0.00743921,-0.00845769,0.22018797,-0.93385447,-5.5363597)" /></g>
<g
   id="g2"><path
     style="font-size:64px;font-family:'Russo One';-inkscape-font-specification:'Russo One';opacity:0.8;fill:#1a1a1a;fill-opacity:0.903305"
     d="m 138.60972,10.220008 q 7.232,0 10.944,3.776 3.776,3.712 3.776,10.944 v 15.36 q 0,7.232 -3.776,11.008 -3.712,3.712 -10.944,3.712 h -24.96 v -44.8 z m 3.2,14.72 q 0,-5.76 -5.76,-5.76 h -10.88 v 26.88 h 10.88 q 5.76,0 5.76,-5.76 z m 51.83996,20.48 q 0,4.8 -2.752,7.552 -2.688,2.688 -7.488,2.688 h -14.72 q -4.8,0 -7.552,-2.688 -2.688,-2.752 -2.688,-7.552 v -14.72 q 0,-4.8 2.688,-7.488 2.752,-2.752 7.552,-2.752 h 14.72 q 4.8,0 7.488,2.752 2.752,2.688 2.752,7.488 z m -11.2,-13.76 q 0,-2.56 -2.56,-2.56 h -7.68 q -2.56,0 -2.56,2.56 v 12.8 q 0,2.56 2.56,2.56 h 7.68 q 2.56,0 2.56,-2.56 z m 47.03995,22.72 q -11.968,1.28 -21.12,1.28 -4.352,0 -6.976,-2.624 -2.624,-2.624 -2.624,-6.976 v -14.72 q 0,-4.8 2.688,-7.488 2.752,-2.752 7.552,-2.752 h 20.48 v 8.64 h -16.96 q -2.56,0 -2.56,2.56 v 12.48 q 0,0.96 0.64,1.6 0.64,0.64 1.6,0.64 5.76,0 17.28,-0.96 z m 28.79995,0.64 q -6.208,0.64 -12.16,0.64 -4.352,0 -6.976,-2.624 -2.624,-2.624 -2.624,-6.976 v -16.32 h -3.84 v -8.64 h 3.84 l 1.28,-7.68 h 9.92 v 7.68 h 8 v 8.64 h -8 v 14.72 q 0,0.96 0.64,1.6 0.64,0.64 1.6,0.64 h 8.32 z m 24.00003,-24.64 q -4.032,0 -8.32,1.92 v 22.72 h -11.2 v -33.92 h 9.92 l 0.64,4.16 q 5.504,-4.8 11.52,-4.8 h 2.88 v 9.92 z m 25.59994,16 q 3.392,0 7.68,-1.28 v -24 h 11.2 v 33.92 h -9.92 l -0.64,-3.2 q -3.008,1.984 -6.208,2.944 -3.136,0.896 -5.312,0.896 h -2.88 q -4.352,0 -6.976,-2.624 -2.624,-2.624 -2.624,-6.976 v -24.96 h 11.2 v 23.04 q 0,0.96 0.64,1.6 0.64,0.64 1.6,0.64 z m 23.99996,-0.32 q 12.992,0.96 20.48,0.96 0.96,0 1.6,-0.64 0.64,-0.64 0.64,-1.6 v -2.24 h -13.76 q -4.352,0 -6.976,-2.624 -2.624,-2.624 -2.624,-6.976 v -2.24 q 0,-4.352 2.624,-6.976 2.624,-2.624 6.976,-2.624 h 21.76 v 8.32 h -17.92 q -0.96,0 -1.6,0.64 -0.64,0.64 -0.64,1.6 0,0.96 0.64,1.6 0.64,0.64 1.6,0.64 h 11.52 q 4.352,0 6.976,2.624 2.624,2.624 2.624,6.976 v 2.56 q 0,4.352 -2.624,6.976 -2.624,2.624 -6.976,2.624 -11.328,0 -24.32,-1.28 z m 62.08,8.96 q -6.208,0.64 -12.16,0.64 -4.352,0 -6.976,-2.624 -2.624,-2.624 -2.624,-6.976 v -16.32 h -3.84 v -8.64 h 3.84 l 1.28,-7.68 h 9.92 v 7.68 h 8 v 8.64 h -8 v 14.72 q 0,0.96 0.64,1.6 0.64,0.64 1.6,0.64 h 8.32 z"
     id="text1"
     aria-label="Doctrust" /></g></g></g><style
     type="text/css"
     id="style1">
	.st0{fill:none;}
	.st1{fill:#2473AE;}
	.st2{fill:#488DD2;}
</style></svg>
